Coordinates
version=1
nRows=37
nColumns=38
inDegrees=no

Units are S.I. units (second, meters, Newtons, ...)
If the header above contains a line with 'inDegrees', this indicates whether rotational values are in degrees (yes) or radians (no).

endheader
time	pelvis_tilt	pelvis_list	pelvis_rotation	pelvis_tx	pelvis_ty	pelvis_tz	hip_flexion_r	hip_adduction_r	hip_rotation_r	knee_angle_r	ankle_angle_r	subtalar_angle_r	mtp_angle_r	hip_flexion_l	hip_adduction_l	hip_rotation_l	knee_angle_l	ankle_angle_l	subtalar_angle_l	mtp_angle_l	lumbar_extension	lumbar_bending	lumbar_rotation	arm_flex_r	arm_add_r	arm_rot_r	elbow_flex_r	pro_sup_r	wrist_flex_r	wrist_dev_r	arm_flex_l	arm_add_l	arm_rot_l	elbow_flex_l	pro_sup_l	wrist_flex_l	wrist_dev_l
1.62	-0.583591	1.50015	-0.881777	0.676328	0.5768	0.928943	-0.298789	0.0871418	-0.181378	0.286916	-0.0779624	0	0	0.295343	-0.0330569	-0.160448	0.176662	-0.271302	0	0	-0.157463	0.0756876	0.113915	0.00496127	-0.342535	0.118081	1.02157	1.5708	0	0	-0.062527	-0.292057	0.385565	0.828553	1.5708	0	0
1.63	-0.57857	1.49997	-0.888475	0.677076	0.567388	0.928097	-0.302461	0.0843322	-0.182879	0.302132	-0.076848	0	0	0.296772	-0.032689	-0.164235	0.200978	-0.268745	0	0	-0.158682	0.074379	0.116745	0.0033654	-0.340493	0.117296	1.01586	1.5708	0	0	-0.06084	-0.290517	0.386739	0.823908	1.5708	0	0
1.64	-0.566594	1.49981	-0.903063	0.677802	0.557643	0.927376	-0.306598	0.0807381	-0.183315	0.31728	-0.0770844	0	0	0.298377	-0.0330622	-0.17037	0.235952	-0.261709	0	0	-0.159809	0.0725936	0.120466	0.000171536	-0.337591	0.114642	1.01022	1.5708	0	0	-0.0598401	-0.288401	0.386321	0.819257	1.5708	0	0
1.65	-0.54072	1.49885	-0.932052	0.67857	0.547539	0.926841	-0.312781	0.0766962	-0.182666	0.33087	-0.0795219	0	0	0.29574	-0.0328244	-0.175312	0.268977	-0.2543	0	0	-0.16155	0.0703466	0.124373	-0.00395933	-0.334914	0.113286	1.00397	1.5708	0	0	-0.0595708	-0.286408	0.385763	0.814846	1.5708	0	0
1.66	-0.503002	1.49737	-0.972996	0.679462	0.537092	0.926467	-0.320266	0.0718693	-0.182157	0.343919	-0.0834895	0	0	0.287997	-0.0307824	-0.177214	0.292068	-0.247042	0	0	-0.163203	0.0671608	0.128206	-0.00896079	-0.331797	0.112055	0.996472	1.5708	0	0	-0.0605886	-0.287278	0.390248	0.810684	1.5708	0	0
1.67	-0.467191	1.49684	-1.01186	0.680571	0.52631	0.926207	-0.326321	0.065739	-0.183043	0.358394	-0.0894241	0	0	0.278019	-0.0260375	-0.176086	0.301705	-0.242714	0	0	-0.163142	0.0638142	0.131965	-0.0156892	-0.328855	0.110815	0.98864	1.5708	0	0	-0.0612992	-0.286651	0.393862	0.805091	1.5708	0	0
1.68	-0.433038	1.49797	-1.0498	0.681672	0.515441	0.926126	-0.328737	0.0579446	-0.183177	0.376995	-0.0977509	0	0	0.267681	-0.0193382	-0.1735	0.297968	-0.25037	0	0	-0.161309	0.0598681	0.135912	-0.0228222	-0.324899	0.108414	0.979808	1.5708	0	0	-0.0614627	-0.283646	0.394042	0.797451	1.5679	0	0
1.69	-0.395102	1.49977	-1.0915	0.682689	0.504463	0.926261	-0.329536	0.0495677	-0.182047	0.397251	-0.10662	0	0	0.257041	-0.0130417	-0.171449	0.28934	-0.268749	0	0	-0.158243	0.0545796	0.139251	-0.0295334	-0.320222	0.107861	0.968167	1.5708	0	0	-0.0625658	-0.28303	0.397394	0.788912	1.56767	0	0
1.7	-0.349756	1.50188	-1.14065	0.683738	0.493445	0.926591	-0.328383	0.0400342	-0.180687	0.420606	-0.116727	0	0	0.2448	-0.00713185	-0.168984	0.278855	-0.289917	0	0	-0.15447	0.0482646	0.142732	-0.0365466	-0.315898	0.109228	0.955088	1.5708	0	0	-0.0634707	-0.284625	0.405893	0.778987	1.5708	0	0
1.71	-0.313133	1.50487	-1.18092	0.684974	0.482409	0.926969	-0.323705	0.0298646	-0.179115	0.447906	-0.128697	0	0	0.233817	-0.00181601	-0.168149	0.270577	-0.30701	0	0	-0.149512	0.0431242	0.145621	-0.0445823	-0.312127	0.11006	0.943423	1.5708	0	0	-0.0636584	-0.283456	0.411309	0.768114	1.5708	0	0
1.72	-0.29822	1.50837	-1.19825	0.686415	0.471416	0.927326	-0.315532	0.020627	-0.177643	0.479159	-0.142751	0	0	0.227042	0.00142782	-0.167806	0.27102	-0.317156	0	0	-0.143602	0.0402267	0.146747	-0.0535793	-0.308993	0.110461	0.933681	1.5708	0	0	-0.0638835	-0.279609	0.412039	0.757031	1.56738	0	0
1.73	-0.28951	1.51124	-1.20715	0.688052	0.460427	0.927767	-0.305848	0.0119742	-0.178526	0.513897	-0.159328	0	0	0.223283	0.00308341	-0.167233	0.281299	-0.322117	0	0	-0.137648	0.0379574	0.145969	-0.0633203	-0.305941	0.110808	0.924326	1.5708	0	0	-0.0643628	-0.278079	0.416977	0.746084	1.56783	0	0
1.74	-0.274179	1.51379	-1.22139	0.689847	0.449551	0.928474	-0.294187	0.00245144	-0.180068	0.552366	-0.179002	0	0	0.220523	0.00462557	-0.166421	0.295706	-0.325414	0	0	-0.13224	0.0357926	0.143811	-0.073053	-0.302728	0.110607	0.915031	1.5708	0	0	-0.0634616	-0.275988	0.42288	0.73345	1.56722	0	0
1.75	-0.223526	1.5134	-1.27052	0.691575	0.438921	0.929642	-0.283502	-0.00857243	-0.181211	0.594021	-0.202656	0	0	0.214174	0.00657979	-0.168199	0.310209	-0.327489	0	0	-0.130595	0.0317575	0.141704	-0.0816158	-0.298595	0.109643	0.90453	1.5708	0	0	-0.0611057	-0.278737	0.438702	0.721103	1.5708	0	0
1.76	-0.15787	1.51226	-1.33429	0.693335	0.428514	0.931125	-0.270759	-0.0208504	-0.181558	0.638634	-0.230668	0	0	0.20556	0.00973373	-0.170415	0.321283	-0.327017	0	0	-0.130471	0.0273692	0.139208	-0.0899169	-0.294672	0.10874	0.89442	1.5708	0	0	-0.0564003	-0.28029	0.454669	0.708081	1.5708	0	0
1.77	-0.09593	1.5117	-1.39368	0.695138	0.418223	0.93268	-0.254381	-0.0332277	-0.181416	0.685004	-0.263037	0	0	0.196639	0.0136282	-0.172408	0.329999	-0.323846	0	0	-0.129703	0.0234295	0.135508	-0.0982574	-0.291152	0.108664	0.885054	1.5708	0	0	-0.0510125	-0.279402	0.466296	0.694407	1.5708	0	0
1.78	-0.0411579	1.51206	-1.44555	0.696944	0.40806	0.934117	-0.234061	-0.0452641	-0.180681	0.732646	-0.301737	0	0	0.188155	0.017714	-0.17462	0.3374	-0.319736	0	0	-0.127564	0.0198385	0.131107	-0.106488	-0.288384	0.110295	0.876332	1.5708	0	0	-0.0454157	-0.278811	0.479204	0.68142	1.56922	0	0
1.79	0.0135639	1.51158	-1.49766	0.698726	0.398018	0.935471	-0.21225	-0.0571576	-0.179006	0.780522	-0.344314	0	0	0.177724	0.0219593	-0.178434	0.34254	-0.315211	0	0	-0.12627	0.0161419	0.126559	-0.114714	-0.286613	0.11313	0.869467	1.5708	0	0	-0.0404496	-0.280371	0.494595	0.671884	1.56683	0	0
1.8	0.067366	1.5108	-1.54921	0.700537	0.388125	0.936659	-0.188719	-0.0691477	-0.176554	0.828849	-0.389282	0	0	0.166012	0.0266463	-0.184537	0.345024	-0.310184	0	0	-0.125319	0.0126786	0.122244	-0.123484	-0.285795	0.11529	0.865601	1.5708	0	0	-0.0351827	-0.282933	0.512157	0.664958	1.56146	0	0
1.81	0.116026	1.50955	-1.59524	0.702386	0.378523	0.937712	-0.164182	-0.0805807	-0.17351	0.877868	-0.427616	0	0	0.153426	0.0311896	-0.190973	0.346127	-0.305126	0	0	-0.125421	0.00959476	0.117422	-0.132221	-0.286023	0.118041	0.864105	1.5708	0	0	-0.029265	-0.285843	0.529892	0.660407	1.55599	0	0
1.82	0.151085	1.50907	-1.62767	0.704138	0.36925	0.938596	-0.137384	-0.0906389	-0.169279	0.927754	-0.461246	0	0	0.141945	0.0346281	-0.196612	0.347395	-0.299288	0	0	-0.125186	0.0075058	0.112911	-0.140846	-0.287435	0.122049	0.864099	1.5708	0	0	-0.0217122	-0.289147	0.550422	0.656977	1.54983	0	0
1.83	0.167677	1.50888	-1.64233	0.705685	0.360295	0.939414	-0.109041	-0.0985891	-0.163019	0.97749	-0.489775	0	0	0.130839	0.0363839	-0.201096	0.348226	-0.293064	0	0	-0.125246	0.00671065	0.109031	-0.148791	-0.28905	0.125159	0.865369	1.5708	0	0	-0.0127408	-0.292605	0.573259	0.65435	1.54373	0	0
1.84	0.164905	1.50758	-1.63868	0.706972	0.351627	0.940357	-0.0809494	-0.104164	-0.15516	1.02561	-0.514009	0	0	0.118164	0.0363005	-0.204793	0.34735	-0.288	0	0	-0.127436	0.00704934	0.105495	-0.155187	-0.290201	0.126481	0.867181	1.5708	0	0	-0.00331273	-0.294969	0.591479	0.652426	1.53667	0	0
1.85	0.150548	1.50553	-1.62351	0.708174	0.343074	0.94147	-0.053408	-0.108279	-0.14749	1.07146	-0.537424	0	0	0.104089	0.0351958	-0.207002	0.344443	-0.284035	0	0	-0.130696	0.00813716	0.101987	-0.160605	-0.290919	0.126454	0.868453	1.5708	0	0	0.00708251	-0.29712	0.609251	0.650274	1.52838	0	0
1.86	0.126817	1.50373	-1.59783	0.709452	0.334503	0.942704	-0.0261755	-0.111461	-0.142469	1.11477	-0.553591	0	0	0.0897597	0.0333782	-0.206781	0.339996	-0.281351	0	0	-0.133442	0.0100836	0.0972288	-0.165263	-0.291577	0.126965	0.868146	1.5708	0	0	0.0180041	-0.298558	0.626585	0.646977	1.521	0	0
1.87	0.0988324	1.50204	-1.56927	0.710563	0.326247	0.944004	0.00216278	-0.113961	-0.136816	1.15673	-0.554369	0	0	0.0755842	0.0309501	-0.20702	0.335204	-0.279344	0	0	-0.136557	0.0123251	0.0930989	-0.168398	-0.29229	0.127156	0.867456	1.5708	0	0	0.0296337	-0.299311	0.642452	0.643445	1.51511	0	0
1.88	0.0663636	1.50054	-1.53768	0.711482	0.318265	0.945317	0.0312787	-0.115393	-0.129777	1.19603	-0.539007	0	0	0.0618615	0.0280082	-0.208621	0.330729	-0.277425	0	0	-0.139802	0.0149491	0.0900802	-0.170617	-0.293295	0.127206	0.866767	1.5708	0	0	0.041766	-0.299372	0.656245	0.639819	1.51063	0	0
1.89	0.0325183	1.50012	-1.504	0.71241	0.310311	0.946491	0.0608675	-0.116505	-0.124448	1.23147	-0.513915	0	0	0.0495799	0.0251932	-0.210005	0.32688	-0.275104	0	0	-0.141423	0.0178752	0.0863784	-0.17326	-0.293856	0.125336	0.866556	1.5708	0	0	0.0536022	-0.299285	0.668421	0.636514	1.5093	0	0
1.9	-0.0040038	1.50012	-1.4671	0.713323	0.302417	0.947557	0.090501	-0.117191	-0.120297	1.26269	-0.487366	0	0	0.0380628	0.0224572	-0.211137	0.32341	-0.272358	0	0	-0.142245	0.0211013	0.0826315	-0.176623	-0.294355	0.122255	0.866746	1.5708	0	0	0.0654688	-0.298938	0.678866	0.63377	1.51068	0	0
1.91	-0.0489921	1.50096	-1.41994	0.71436	0.294472	0.948516	0.119527	-0.116631	-0.117846	1.28777	-0.4642	0	0	0.0278596	0.0194512	-0.21065	0.320345	-0.269411	0	0	-0.141469	0.0252112	0.077509	-0.180873	-0.294704	0.118017	0.866947	1.5708	0	0	0.0770187	-0.298031	0.687247	0.631048	1.51268	0	0
1.92	-0.10545	1.50161	-1.36061	0.715427	0.286518	0.949441	0.147626	-0.114605	-0.115765	1.30701	-0.445717	0	0	0.0179159	0.0156325	-0.210053	0.317437	-0.266406	0	0	-0.140312	0.0304005	0.0719106	-0.185639	-0.294505	0.111148	0.867693	1.5708	0	0	0.0883513	-0.296483	0.693354	0.628555	1.5138	0	0
1.93	-0.169043	1.50189	-1.2944	0.716426	0.278414	0.950335	0.17464	-0.111761	-0.113669	1.32061	-0.430912	0	0	0.00747187	0.0109698	-0.210705	0.313824	-0.263588	0	0	-0.138771	0.0360647	0.0670249	-0.191201	-0.293668	0.10224	0.868476	1.5708	0	0	0.0994861	-0.29439	0.69776	0.626479	1.51448	0	0
1.94	-0.23091	1.50062	-1.22928	0.717397	0.270442	0.951238	0.199099	-0.108275	-0.111893	1.32843	-0.417992	0	0	-0.004005	0.00574203	-0.210275	0.31006	-0.261033	0	0	-0.138704	0.0421136	0.0625447	-0.197238	-0.29274	0.0920973	0.87019	1.5708	0	0	0.111116	-0.29259	0.701848	0.625535	1.51643	0	0
1.95	-0.285265	1.49784	-1.17144	0.718314	0.262658	0.952129	0.221291	-0.104511	-0.110652	1.33107	-0.405562	0	0	-0.0165727	0.000150337	-0.208961	0.305989	-0.258852	0	0	-0.140538	0.0483246	0.0587256	-0.203243	-0.291748	0.0809354	0.872599	1.5708	0	0	0.123301	-0.290966	0.70513	0.625873	1.5193	0	0
1.96	-0.331665	1.49409	-1.12134	0.719214	0.254947	0.952981	0.241307	-0.10048	-0.110494	1.32857	-0.392192	0	0	-0.0299126	-0.00576035	-0.207305	0.301859	-0.256845	0	0	-0.143594	0.0546696	0.0550827	-0.208997	-0.290176	0.0680008	0.875167	1.5708	0	0	0.135506	-0.289211	0.706428	0.627574	1.52197	0	0
1.97	-0.371193	1.48992	-1.07837	0.720098	0.247314	0.953772	0.259875	-0.0961474	-0.110636	1.32178	-0.377202	0	0	-0.0436451	-0.0116299	-0.205753	0.297541	-0.254682	0	0	-0.147344	0.0610799	0.0520925	-0.214504	-0.28868	0.0548667	0.877886	1.5708	0	0	0.147429	-0.286872	0.705125	0.630291	1.52376	0	0
1.98	-0.400748	1.48571	-1.04647	0.720904	0.239831	0.954471	0.277669	-0.0916888	-0.109626	1.3116	-0.361001	0	0	-0.0576231	-0.0168232	-0.205514	0.293154	-0.252243	0	0	-0.151831	0.0669878	0.0503224	-0.219482	-0.287575	0.0423336	0.880883	1.5708	0	0	0.158992	-0.284236	0.701286	0.634436	1.52511	0	0
